<svg width="0" height="0" class="hidden">
  <symbol enable-background="new 0 0 512 512" id="skype_icon" version="1.1" xml:space="preserve" xmlns="http://www.w3.org/2000/svg" xmlns:xlink="http://www.w3.org/1999/xlink" viewBox="0 0 512 512">
    <g>
      <path d="M258.9,507.2C120.4,507.9,6.7,392.6,9.9,252C12.9,118.1,124,7,262.3,8.7c136.6,1.7,249.4,115.4,245.8,256   C504.7,398.1,394.7,507.8,258.9,507.2z M477.8,257.9c-1-125.3-102.4-221.7-222-219.9C139.2,39.7,40.2,134.7,40.4,258.3   C40.6,383.7,142.8,479.9,262.5,478C378.8,476.2,476.9,381.3,477.8,257.9z"></path>
      <path d="M113.9,263c3.7-12.9-0.8-25.1-4.5-38c-14.3-50,18.9-99.4,70.6-105.7c16.4-2,32.2,0.8,47.1,8.2c2.2,1.1,5.1,1.6,7.6,1.4   c66.2-6.8,125,30.9,145.6,93.8c6.3,19.1,8,38.7,5.6,58.7c-0.3,2.4,0.3,5.3,1.5,7.4c23.3,43.6,6.2,96-38.5,116.5   c-25.6,11.8-51.1,10.3-75.8-3.3c-3.5-1.9-6.7-2.8-10.8-2.4c-69.2,6.4-133-42.2-145.4-110.6C115.4,280.7,114.9,272.2,113.9,263z    M126,266.5c1.2,7.8,2.1,18.3,4.5,28.5c14,59.1,74.6,100.4,134.7,92.1c3.9-0.5,6.9,0.2,10.2,2.3c16.6,10.6,34.7,14.3,54,9.7   c48.9-11.7,71.1-64.4,45.5-107.8c-1.4-2.3-2.1-5.7-1.7-8.3c3.6-23.9,0.5-46.8-9.1-68.9c-21.2-48.7-73.2-81.5-132.2-73.1   c-2.5,0.4-5.4-0.7-7.9-1.5c-8.8-2.7-17.5-7.2-26.5-8.2c-28.1-3-51.3,7.2-67.2,30.7c-16,23.6-16.7,48.8-4,74.4   c1.1,2.2,1.5,5,1.4,7.5C127.6,250.6,126.8,257.3,126,266.5z"></path>
      <path d="M249.6,340.9c-18.3-0.6-35.4-3.4-49.8-15c-6.5-5.3-11.4-11.6-12.4-20.3c-0.8-6.7,1.8-12,7-14.8c5.7-3,12.2-2.4,17.1,2.3   c3.7,3.6,6.9,7.7,10.3,11.6c10.3,11.7,31.5,15,44.9,7c6.5-3.9,10.5-9.2,9.7-17.1c-0.8-8.1-6.5-11.6-13.5-13.5   c-13.5-3.6-27.1-6.9-40.6-10.4c-9.5-2.5-18-6.6-25.2-13.6c-13.9-13.6-16.8-49.7,12.9-63.9c27.9-13.3,55.5-11.4,81.7,5.6   c6,3.9,10.6,9.1,12.2,16.4c1.5,6.9-0.3,12-5.4,15.3c-5.8,3.7-13.1,3.6-18.2-0.6c-3.2-2.7-6.2-5.6-8.8-8.8   c-9.8-11.6-31.9-12.2-41.8-7.2c-5.7,2.9-9.4,7.3-9.6,14c-0.2,6.6,4.2,10.4,9.5,12.1c11.2,3.6,22.7,6.2,34.1,9.3   c6.7,1.8,13.6,3.3,20.1,5.7c16.5,6.3,25.8,18.3,26.6,36.2c0.9,17.9-6.4,31.7-21.9,40.8C276.3,339,262.7,340.4,249.6,340.9z"></path>
    </g>
  </symbol>
  <symbol version="1.1" id="github-logo" xmlns="http://www.w3.org/2000/svg" xmlns:xlink="http://www.w3.org/1999/xlink" x="0px" y="0px" xml:space="preserve" viewBox="0 0 438.549 438.549">
    <g>
      <path d="M409.132,114.573c-19.608-33.596-46.205-60.194-79.798-79.8C295.736,15.166,259.057,5.365,219.271,5.365
		c-39.781,0-76.472,9.804-110.063,29.408c-33.596,19.605-60.192,46.204-79.8,79.8C9.803,148.168,0,184.854,0,224.63
		c0,47.78,13.94,90.745,41.827,128.906c27.884,38.164,63.906,64.572,108.063,79.227c5.14,0.954,8.945,0.283,11.419-1.996
		c2.475-2.282,3.711-5.14,3.711-8.562c0-0.571-0.049-5.708-0.144-15.417c-0.098-9.709-0.144-18.179-0.144-25.406l-6.567,1.136
		c-4.187,0.767-9.469,1.092-15.846,1c-6.374-0.089-12.991-0.757-19.842-1.999c-6.854-1.231-13.229-4.086-19.13-8.559
		c-5.898-4.473-10.085-10.328-12.56-17.556l-2.855-6.57c-1.903-4.374-4.899-9.233-8.992-14.559
		c-4.093-5.331-8.232-8.945-12.419-10.848l-1.999-1.431c-1.332-0.951-2.568-2.098-3.711-3.429c-1.142-1.331-1.997-2.663-2.568-3.997
		c-0.572-1.335-0.098-2.43,1.427-3.289c1.525-0.859,4.281-1.276,8.28-1.276l5.708,0.853c3.807,0.763,8.516,3.042,14.133,6.851
		c5.614,3.806,10.229,8.754,13.846,14.842c4.38,7.806,9.657,13.754,15.846,17.847c6.184,4.093,12.419,6.136,18.699,6.136
		c6.28,0,11.704-0.476,16.274-1.423c4.565-0.952,8.848-2.383,12.847-4.285c1.713-12.758,6.377-22.559,13.988-29.41
		c-10.848-1.14-20.601-2.857-29.264-5.14c-8.658-2.286-17.605-5.996-26.835-11.14c-9.235-5.137-16.896-11.516-22.985-19.126
		c-6.09-7.614-11.088-17.61-14.987-29.979c-3.901-12.374-5.852-26.648-5.852-42.826c0-23.035,7.52-42.637,22.557-58.817
		c-7.044-17.318-6.379-36.732,1.997-58.24c5.52-1.715,13.706-0.428,24.554,3.853c10.85,4.283,18.794,7.952,23.84,10.994
		c5.046,3.041,9.089,5.618,12.135,7.708c17.705-4.947,35.976-7.421,54.818-7.421s37.117,2.474,54.823,7.421l10.849-6.849
		c7.419-4.57,16.18-8.758,26.262-12.565c10.088-3.805,17.802-4.853,23.134-3.138c8.562,21.509,9.325,40.922,2.279,58.24
		c15.036,16.18,22.559,35.787,22.559,58.817c0,16.178-1.958,30.497-5.853,42.966c-3.9,12.471-8.941,22.457-15.125,29.979
		c-6.191,7.521-13.901,13.85-23.131,18.986c-9.232,5.14-18.182,8.85-26.84,11.136c-8.662,2.286-18.415,4.004-29.263,5.146
		c9.894,8.562,14.842,22.077,14.842,40.539v60.237c0,3.422,1.19,6.279,3.572,8.562c2.379,2.279,6.136,2.95,11.276,1.995
		c44.163-14.653,80.185-41.062,108.068-79.226c27.88-38.161,41.825-81.126,41.825-128.906
		C438.536,184.851,428.728,148.168,409.132,114.573z"></path>
    </g>
    <g></g>
    <g></g>
    <g></g>
    <g></g>
    <g></g>
    <g></g>
    <g></g>
    <g></g>
    <g></g>
    <g></g>
    <g></g>
    <g></g>
    <g></g>
    <g></g>
    <g></g>
  </symbol>
  <symbol version="1.1" id="email" xmlns="http://www.w3.org/2000/svg" xmlns:xlink="http://www.w3.org/1999/xlink" x="0px" y="0px" xml:space="preserve" viewBox="0 0 512 512">
    <g>
      <path d="M448,64H64C28.656,64,0,92.656,0,128v256c0,35.344,28.656,64,64,64h384c35.344,0,64-28.656,64-64V128
		C512,92.656,483.344,64,448,64z M342.656,234.781l135.469-116.094c0.938,3,1.875,6,1.875,9.313v256
		c0,2.219-0.844,4.188-1.281,6.281L342.656,234.781z M448,96c2.125,0,4,0.813,6,1.219L256,266.938L58,97.219
		C60,96.813,61.875,96,64,96H448z M33.266,390.25C32.828,388.156,32,386.219,32,384V128c0-3.313,0.953-6.313,1.891-9.313
		L169.313,234.75L33.266,390.25z M64,416c-3.234,0-6.172-0.938-9.125-1.844l138.75-158.563l51.969,44.531
		C248.578,302.719,252.297,304,256,304s7.422-1.281,10.406-3.875l51.969-44.531l138.75,158.563C454.188,415.062,451.25,416,448,416
		H64z"></path>
    </g>
    <g></g>
    <g></g>
    <g></g>
    <g></g>
    <g></g>
    <g></g>
    <g></g>
    <g></g>
    <g></g>
    <g></g>
    <g></g>
    <g></g>
    <g></g>
    <g></g>
    <g></g>
  </symbol>
  <symbol version="1.1" id="telegram_iconsvg" xmlns="http://www.w3.org/2000/svg" xmlns:xlink="http://www.w3.org/1999/xlink" x="0px" y="0px" xml:space="preserve" viewBox="0 0 24 24">
    <path d="M12,2C6.5,2,2,6.5,2,12s4.5,10,10,10s10-4.5,10-10S17.5,2,12,2z M16.9,8.1l-1.7,8.2c-0.1,0.6-0.5,0.7-0.9,0.4l-2.6-2
	c-0.6,0.6-1.2,1.1-1.3,1.3c-0.2,0.1-0.3,0.3-0.5,0.3c-0.3,0-0.3-0.2-0.4-0.4l-0.9-3L5.9,12c-0.6-0.2-0.6-0.6,0.1-0.9l10.2-3.9
	C16.6,7.1,17.1,7.3,16.9,8.1z M14.5,9l-5.7,3.6l0.9,3l0.2-2l4.9-4.4C15.1,8.9,14.9,8.9,14.5,9z"></path>
  </symbol>
</svg>